{
  "source": "C:\\Users\\Peter\\Desktop\\stuff\\MIUN\\quantitative_research\\video_compression\\videos\\UVG\\ReadySteadyGo_1920x1080_120fps_420_8bit_YUV.y4m",
  "output": "C:\\Users\\Peter\\Desktop\\stuff\\MIUN\\quantitative_research\\video_compression\\compressed_videos\\UVG\\av1\\2.5\\ReadySteadyGo_1920x1080_120fps_420_8bit_YUV_av1.mkv",
  "codec": "av1",
  "ok": "[yuv4mpegpipe @ 0000014fbb6254c0] Stream #0: not enough frames to estimate rate; consider increasing probesize\nInput #0, yuv4mpegpipe, from 'C:\\Users\\Peter\\Desktop\\stuff\\MIUN\\quantitative_research\\video_compression\\videos\\UVG\\ReadySteadyGo_1920x1080_120fps_420_8bit_YUV.y4m':\n  Duration: 00:00:05.00, start: 0.000000, bitrate: 2985989 kb/s\n  Stream #0:0: Video: rawvideo (I420 / 0x30323449), yuv420p(progressive), 1920x1080, 120 fps, 120 tbr, 120 tbn\n[out#0/matroska @ 0000014fbb629200] Codec AVOption b:a (set bitrate (in bits/s)) has not been used for any stream. The most likely reason is either wrong type (e.g. a video option with no video streams) or that it is a private option of some decoder which was not actually used for any stream.\nStream mapping:\n  Stream #0:0 -> #0:0 (rawvideo (native) -> av1 (libsvtav1))\nPress [q] to stop, [?] for help\nSvt[info]: -------------------------------------------\nSvt[info]: SVT [version]:\tSVT-AV1 Encoder Lib v3.1.0-19-g6ecfe8ec\nSvt[info]: SVT [build]  :\tGCC 15.2.0\t 64 bit\nSvt[info]: LIB Build date: Aug 17 2025 11:37:13\nSvt[info]: -------------------------------------------\n[libsvtav1 @ 0000014fbb62bb40] Specified chroma sample location center is unsupported on the AV1 bit stream level. Usage of a container that allows passing this information - such as Matroska - is recommended.\nSvt[info]: Level of Parallelism: 5\nSvt[info]: Number of PPCS 93\nSvt[info]: [asm level on system : up to avx2]\nSvt[info]: [asm level selected : up to avx2]\nSvt[info]: -------------------------------------------\nSvt[info]: SVT [config]: main profile\ttier (auto)\tlevel (auto)\nSvt[info]: SVT [config]: width / height / fps numerator / fps denominator \t\t: 1920 / 1080 / 120 / 1\nSvt[info]: SVT [config]: bit-depth / color format \t\t\t\t\t: 8 / YUV420\nSvt[info]: SVT [config]: preset / tune / pred struct \t\t\t\t\t: 4 / PSNR / random access\nSvt[info]: SVT [config]: gop size / mini-gop size / key-frame type \t\t\t: 641 / 16 / key frame\nSvt[info]: SVT [config]: BRC mode / target bitrate (kbps)\t\t\t\t: VBR / 2500 \nSvt[info]: SVT [config]: AQ mode / Variance Boost \t\t\t\t\t: 2 / 0\nSvt[info]: SVT [config]: sharpness / luminance-based QP bias \t\t\t\t: 0 / 0\nSvt[info]: SVT [config]: QP scale compress strength \t\t\t\t\t: 0\nSvt[info]: -------------------------------------------\nOutput #0, matroska, to 'C:\\Users\\Peter\\Desktop\\stuff\\MIUN\\quantitative_research\\video_compression\\compressed_videos\\UVG\\av1\\2.5\\ReadySteadyGo_1920x1080_120fps_420_8bit_YUV_av1.mkv':\n  Metadata:\n    encoder         : Lavf62.3.100\n  Stream #0:0: Video: av1 (AV01 / 0x31305641), yuv420p(tv, progressive), 1920x1080, q=2-31, 2500 kb/s, 120 fps, 1k tbn\n    Metadata:\n      encoder         : Lavc62.11.100 libsvtav1\n    Side data:\n      cpb: bitrate max/min/avg: 0/0/2500000 buffer size: 2500000 vbv_delay: N/A\nframe=    0 fps=0.0 q=0.0 size=       0KiB time=N/A bitrate=N/A speed=N/A elapsed=0:00:03.43    \nframe=    0 fps=0.0 q=0.0 size=       0KiB time=N/A bitrate=N/A speed=N/A elapsed=0:00:03.97    \nframe=    0 fps=0.0 q=0.0 size=       0KiB time=N/A bitrate=N/A speed=N/A elapsed=0:00:04.52    \nframe=    0 fps=0.0 q=0.0 size=       0KiB time=N/A bitrate=N/A speed=N/A elapsed=0:00:05.04    \nframe=    0 fps=0.0 q=0.0 size=       0KiB time=N/A bitrate=N/A speed=N/A elapsed=0:00:05.57    \nframe=    0 fps=0.0 q=0.0 size=       0KiB time=N/A bitrate=N/A speed=N/A elapsed=0:00:06.10    \nframe=    0 fps=0.0 q=0.0 size=       0KiB time=N/A bitrate=N/A speed=N/A elapsed=0:00:06.63    \nframe=    0 fps=0.0 q=0.0 size=       0KiB time=N/A bitrate=N/A speed=N/A elapsed=0:00:07.16    \nframe=    0 fps=0.0 q=0.0 size=       0KiB time=N/A bitrate=N/A speed=N/A elapsed=0:00:07.72    \nframe=    0 fps=0.0 q=0.0 size=       0KiB time=N/A bitrate=N/A speed=N/A elapsed=0:00:08.27    \nframe=    0 fps=0.0 q=0.0 size=       0KiB time=N/A bitrate=N/A speed=N/A elapsed=0:00:08.81    \nframe=    0 fps=0.0 q=0.0 size=       0KiB time=N/A bitrate=N/A speed=N/A elapsed=0:00:09.39    \nframe=    0 fps=0.0 q=0.0 size=       0KiB time=N/A bitrate=N/A speed=N/A elapsed=0:00:09.98    \nframe=    0 fps=0.0 q=0.0 size=       0KiB time=N/A bitrate=N/A speed=N/A elapsed=0:00:10.57    \nframe=    0 fps=0.0 q=0.0 size=       0KiB time=N/A bitrate=N/A speed=N/A elapsed=0:00:11.15    \nframe=    0 fps=0.0 q=0.0 size=       0KiB time=N/A bitrate=N/A speed=N/A elapsed=0:00:11.76    \nframe=    0 fps=0.0 q=0.0 size=       0KiB time=N/A bitrate=N/A speed=N/A elapsed=0:00:12.35    \nframe=    0 fps=0.0 q=0.0 size=       0KiB time=N/A bitrate=N/A speed=N/A elapsed=0:00:12.95    \nframe=    0 fps=0.0 q=0.0 size=       0KiB time=N/A bitrate=N/A speed=N/A elapsed=0:00:13.55    \nframe=    0 fps=0.0 q=0.0 size=       0KiB time=N/A bitrate=N/A speed=N/A elapsed=0:00:14.24    \nframe=    0 fps=0.0 q=0.0 size=       0KiB time=N/A bitrate=N/A speed=N/A elapsed=0:00:15.11    \nframe=    0 fps=0.0 q=0.0 size=       0KiB time=N/A bitrate=N/A speed=N/A elapsed=0:00:16.03    \nframe=    0 fps=0.0 q=0.0 size=       0KiB time=N/A bitrate=N/A speed=N/A elapsed=0:00:16.89    \nframe=    0 fps=0.0 q=0.0 size=       0KiB time=N/A bitrate=N/A speed=N/A elapsed=0:00:17.57    \nframe=    0 fps=0.0 q=0.0 size=       0KiB time=N/A bitrate=N/A speed=N/A elapsed=0:00:18.11    \nframe=    0 fps=0.0 q=0.0 size=       0KiB time=N/A bitrate=N/A speed=N/A elapsed=0:00:18.77    \nframe=    0 fps=0.0 q=0.0 size=       0KiB time=N/A bitrate=N/A speed=N/A elapsed=0:00:19.53    \nframe=    0 fps=0.0 q=0.0 size=       0KiB time=N/A bitrate=N/A speed=N/A elapsed=0:00:20.20    \nframe=    1 fps=0.0 q=25.0 size=       1KiB time=00:00:00.00 bitrate=N/A speed=   0x elapsed=0:00:21.01    \nframe=    1 fps=0.0 q=25.0 size=       1KiB time=00:00:00.00 bitrate=N/A speed=   0x elapsed=0:00:21.92    \nframe=    1 fps=0.0 q=25.0 size=       1KiB time=00:00:00.00 bitrate=N/A speed=   0x elapsed=0:00:22.81    \nframe=    1 fps=0.0 q=25.0 size=       1KiB time=00:00:00.00 bitrate=N/A speed=   0x elapsed=0:00:23.75    \nframe=    1 fps=0.0 q=25.0 size=       1KiB time=00:00:00.00 bitrate=N/A speed=   0x elapsed=0:00:24.89    \nframe=    1 fps=0.0 q=25.0 size=       1KiB time=00:00:00.00 bitrate=N/A speed=   0x elapsed=0:00:26.17    \nframe=    1 fps=0.0 q=25.0 size=       1KiB time=00:00:00.00 bitrate=N/A speed=   0x elapsed=0:00:26.69    \nframe=    1 fps=0.0 q=25.0 size=       1KiB time=00:00:00.00 bitrate=N/A speed=   0x elapsed=0:00:27.20    \nframe=    3 fps=0.1 q=51.0 size=       1KiB time=00:00:00.01 bitrate= 268.8kbits/s speed=0.000601x elapsed=0:00:27.73    \nframe=    3 fps=0.1 q=51.0 size=       1KiB time=00:00:00.01 bitrate= 268.8kbits/s speed=0.00059x elapsed=0:00:28.24    \nframe=    5 fps=0.2 q=50.0 size=       1KiB time=00:00:00.03 bitrate= 134.4kbits/s speed=0.00116x elapsed=0:00:28.75    \nframe=    6 fps=0.2 q=54.0 size=       1KiB time=00:00:00.04 bitrate= 107.5kbits/s speed=0.00142x elapsed=0:00:29.27    \nframe=    8 fps=0.3 q=52.0 size=       1KiB time=00:00:00.05 bitrate=  76.8kbits/s speed=0.00195x elapsed=0:00:29.87    \nframe=    8 fps=0.3 q=52.0 size=       1KiB time=00:00:00.05 bitrate=  76.8kbits/s speed=0.00192x elapsed=0:00:30.39    \nframe=   10 fps=0.3 q=50.0 size=       1KiB time=00:00:00.07 bitrate=  59.7kbits/s speed=0.00243x elapsed=0:00:30.91    \nframe=   12 fps=0.4 q=49.0 size=       1KiB time=00:00:00.09 bitrate=  48.9kbits/s speed=0.00292x elapsed=0:00:31.42    \nframe=   12 fps=0.4 q=49.0 size=       1KiB time=00:00:00.09 bitrate=  48.9kbits/s speed=0.00285x elapsed=0:00:32.20    \nframe=   13 fps=0.4 q=49.0 size=       1KiB time=00:00:00.10 bitrate=  44.8kbits/s speed=0.00305x elapsed=0:00:32.73    \nframe=   14 fps=0.4 q=48.0 size=       1KiB time=00:00:00.10 bitrate=  41.4kbits/s speed=0.00325x elapsed=0:00:33.31    \nframe=   16 fps=0.5 q=48.0 size=       1KiB time=00:00:00.12 bitrate=  35.8kbits/s speed=0.00368x elapsed=0:00:33.93    \nframe=   16 fps=0.5 q=48.0 size=       1KiB time=00:00:00.12 bitrate=  35.8kbits/s speed=0.00361x elapsed=0:00:34.61    \nframe=   17 fps=0.5 q=35.0 size=       1KiB time=00:00:00.13 bitrate=  33.6kbits/s speed=0.0038x elapsed=0:00:35.12    \nframe=   18 fps=0.5 q=48.0 size=       1KiB time=00:00:00.14 bitrate=  31.6kbits/s speed=0.00397x elapsed=0:00:35.64    \nframe=   19 fps=0.5 q=50.0 size=       1KiB time=00:00:00.15 bitrate=  29.9kbits/s speed=0.00415x elapsed=0:00:36.16    \nframe=   21 fps=0.6 q=49.0 size=       1KiB time=00:00:00.16 bitrate=  26.9kbits/s speed=0.00454x elapsed=0:00:36.67    \nframe=   21 fps=0.6 q=49.0 size=       1KiB time=00:00:00.16 bitrate=  26.9kbits/s speed=0.00448x elapsed=0:00:37.19    \nframe=   22 fps=0.6 q=48.0 size=       1KiB time=00:00:00.17 bitrate=  25.6kbits/s speed=0.00464x elapsed=0:00:37.70    \nframe=   22 fps=0.6 q=48.0 size=       1KiB time=00:00:00.17 bitrate=  25.6kbits/s speed=0.00458x elapsed=0:00:38.22    \nframe=   23 fps=0.6 q=50.0 size=       1KiB time=00:00:00.18 bitrate=  24.4kbits/s speed=0.00473x elapsed=0:00:38.73    \nframe=   24 fps=0.6 q=48.0 size=       1KiB time=00:00:00.19 bitrate=  23.4kbits/s speed=0.00488x elapsed=0:00:39.25    \nframe=   26 fps=0.7 q=49.0 size=       1KiB time=00:00:00.20 bitrate=  21.5kbits/s speed=0.00524x elapsed=0:00:39.78    \nframe=   27 fps=0.7 q=50.0 size=       1KiB time=00:00:00.21 bitrate=  20.7kbits/s speed=0.00538x elapsed=0:00:40.28    \nframe=   28 fps=0.7 q=49.0 size=       1KiB time=00:00:00.22 bitrate=  19.9kbits/s speed=0.00551x elapsed=0:00:40.80    \nframe=   29 fps=0.7 q=46.0 size=       1KiB time=00:00:00.23 bitrate=  19.2kbits/s speed=0.00565x elapsed=0:00:41.31    \nframe=   31 fps=0.7 q=49.0 size=       1KiB time=00:00:00.25 bitrate=  17.9kbits/s speed=0.00598x elapsed=0:00:41.83    \nframe=   32 fps=0.8 q=49.0 size=       1KiB time=00:00:00.25 bitrate=  17.3kbits/s speed=0.0061x elapsed=0:00:42.34    \nframe=   33 fps=0.8 q=33.0 size=       1KiB time=00:00:00.26 bitrate=  16.8kbits/s speed=0.00622x elapsed=0:00:42.86    \nframe=   34 fps=0.8 q=50.0 size=       1KiB time=00:00:00.27 bitrate=  16.3kbits/s speed=0.00634x elapsed=0:00:43.37    \nframe=   35 fps=0.8 q=50.0 size=       1KiB time=00:00:00.28 bitrate=  15.8kbits/s speed=0.00645x elapsed=0:00:43.89    \nframe=   36 fps=0.8 q=50.0 size=       1KiB time=00:00:00.29 bitrate=  15.4kbits/s speed=0.00657x elapsed=0:00:44.41    \nframe=   37 fps=0.8 q=48.0 size=       1KiB time=00:00:00.30 bitrate=  14.9kbits/s speed=0.00668x elapsed=0:00:44.92    \nframe=   38 fps=0.8 q=48.0 size=       1KiB time=00:00:00.30 bitrate=  14.5kbits/s speed=0.00679x elapsed=0:00:45.44    \nframe=   38 fps=0.8 q=48.0 size=       1KiB time=00:00:00.30 bitrate=  14.5kbits/s speed=0.00671x elapsed=0:00:45.95    \nframe=   39 fps=0.8 q=47.0 size=       1KiB time=00:00:00.31 bitrate=  14.1kbits/s speed=0.00681x elapsed=0:00:46.47    \nframe=   41 fps=0.9 q=46.0 size=       1KiB time=00:00:00.33 bitrate=  13.4kbits/s speed=0.00709x elapsed=0:00:46.99    \nframe=   42 fps=0.9 q=50.0 size=       1KiB time=00:00:00.34 bitrate=  13.1kbits/s speed=0.00719x elapsed=0:00:47.50    \nframe=   43 fps=0.9 q=49.0 size=       1KiB time=00:00:00.35 bitrate=  12.8kbits/s speed=0.00729x elapsed=0:00:48.02    \nframe=   44 fps=0.9 q=50.0 size=       1KiB time=00:00:00.35 bitrate=  12.5kbits/s speed=0.00738x elapsed=0:00:48.54    \nframe=   47 fps=1.0 q=50.0 size=       1KiB time=00:00:00.38 bitrate=  11.7kbits/s speed=0.00781x elapsed=0:00:49.06    \nframe=   48 fps=1.0 q=50.0 size=       1KiB time=00:00:00.39 bitrate=  11.4kbits/s speed=0.0079x elapsed=0:00:49.58    \nframe=   49 fps=1.0 q=31.0 size=       1KiB time=00:00:00.40 bitrate=  11.2kbits/s speed=0.00798x elapsed=0:00:50.10    \nframe=   51 fps=1.0 q=50.0 size=       1KiB time=00:00:00.41 bitrate=  10.8kbits/s speed=0.00823x elapsed=0:00:50.62    \nframe=   51 fps=1.0 q=50.0 size=       1KiB time=00:00:00.41 bitrate=  10.8kbits/s speed=0.00815x elapsed=0:00:51.12    \nframe=   53 fps=1.0 q=49.0 size=       1KiB time=00:00:00.43 bitrate=  10.3kbits/s speed=0.00839x elapsed=0:00:51.64    \nframe=   54 fps=1.0 q=50.0 size=       1KiB time=00:00:00.44 bitrate=  10.1kbits/s speed=0.00847x elapsed=0:00:52.16    \nframe=   55 fps=1.0 q=48.0 size=       1KiB time=00:00:00.45 bitrate=  10.0kbits/s speed=0.00854x elapsed=0:00:52.68    \nframe=   55 fps=1.0 q=48.0 size=       1KiB time=00:00:00.45 bitrate=  10.0kbits/s speed=0.00846x elapsed=0:00:53.19    \nframe=   55 fps=1.0 q=48.0 size=       1KiB time=00:00:00.45 bitrate=  10.0kbits/s speed=0.00838x elapsed=0:00:53.70    \nframe=   56 fps=1.0 q=50.0 size=       1KiB time=00:00:00.45 bitrate=   9.8kbits/s speed=0.00845x elapsed=0:00:54.22    \nframe=   57 fps=1.0 q=46.0 size=       1KiB time=00:00:00.46 bitrate=   9.6kbits/s speed=0.00852x elapsed=0:00:54.74    \nframe=   58 fps=1.0 q=51.0 size=       1KiB time=00:00:00.47 bitrate=   9.4kbits/s speed=0.0086x elapsed=0:00:55.25    \nframe=   59 fps=1.1 q=50.0 size=       1KiB time=00:00:00.48 bitrate=   9.3kbits/s speed=0.00867x elapsed=0:00:55.76    \nframe=   60 fps=1.1 q=49.0 size=       1KiB time=00:00:00.49 bitrate=   9.1kbits/s speed=0.00874x elapsed=0:00:56.28    \nframe=   63 fps=1.1 q=50.0 size=       1KiB time=00:00:00.51 bitrate=   8.7kbits/s speed=0.00909x elapsed=0:00:56.80    \nframe=   65 fps=1.1 q=32.0 size=       1KiB time=00:00:00.53 bitrate=   8.4kbits/s speed=0.0093x elapsed=0:00:57.32    \nframe=   66 fps=1.1 q=53.0 size=       1KiB time=00:00:00.54 bitrate=   8.3kbits/s speed=0.00936x elapsed=0:00:57.84    \nframe=   68 fps=1.2 q=53.0 size=       1KiB time=00:00:00.55 bitrate=   8.0kbits/s speed=0.00957x elapsed=0:00:58.35    \nframe=   70 fps=1.2 q=53.0 size=       1KiB time=00:00:00.57 bitrate=   7.8kbits/s speed=0.00977x elapsed=0:00:58.86    \nframe=   70 fps=1.2 q=53.0 size=       1KiB time=00:00:00.57 bitrate=   7.8kbits/s speed=0.00968x elapsed=0:00:59.37    \nframe=   71 fps=1.2 q=52.0 size=       1KiB time=00:00:00.58 bitrate=   7.7kbits/s speed=0.00974x elapsed=0:00:59.89    \nframe=   72 fps=1.2 q=53.0 size=       1KiB time=00:00:00.59 bitrate=   7.6kbits/s speed=0.00979x elapsed=0:01:00.43    \nframe=   74 fps=1.2 q=53.0 size=       1KiB time=00:00:00.60 bitrate=   7.4kbits/s speed=0.00998x elapsed=0:01:00.97    \nframe=   75 fps=1.2 q=51.0 size=       1KiB time=00:00:00.61 bitrate=   7.3kbits/s speed=0.01x elapsed=0:01:01.52    \nframe=   76 fps=1.2 q=50.0 size=       1KiB time=00:00:00.62 bitrate=   7.2kbits/s speed=0.0101x elapsed=0:01:02.04    \nframe=   78 fps=1.2 q=53.0 size=       1KiB time=00:00:00.64 bitrate=   7.0kbits/s speed=0.0103x elapsed=0:01:02.56    \nframe=   80 fps=1.3 q=53.0 size=       1KiB time=00:00:00.65 bitrate=   6.8kbits/s speed=0.0104x elapsed=0:01:03.08    \nframe=   82 fps=1.3 q=54.0 size=       1KiB time=00:00:00.67 bitrate=   6.6kbits/s speed=0.0106x elapsed=0:01:03.59    \nframe=   83 fps=1.3 q=53.0 size=       1KiB time=00:00:00.68 bitrate=   6.6kbits/s speed=0.0107x elapsed=0:01:04.11    \nframe=   85 fps=1.3 q=50.0 size=       1KiB time=00:00:00.70 bitrate=   6.4kbits/s speed=0.0108x elapsed=0:01:04.63    \nframe=   86 fps=1.3 q=52.0 size=       1KiB time=00:00:00.70 bitrate=   6.3kbits/s speed=0.0109x elapsed=0:01:05.14    \nframe=   86 fps=1.3 q=52.0 size=       1KiB time=00:00:00.70 bitrate=   6.3kbits/s speed=0.0108x elapsed=0:01:05.66    \nframe=   87 fps=1.3 q=49.0 size=       1KiB time=00:00:00.71 bitrate=   6.3kbits/s speed=0.0108x elapsed=0:01:06.18    \nframe=   87 fps=1.3 q=49.0 size=       1KiB time=00:00:00.71 bitrate=   6.3kbits/s speed=0.0107x elapsed=0:01:06.69    \nframe=   89 fps=1.3 q=44.0 size=       1KiB time=00:00:00.73 bitrate=   6.1kbits/s speed=0.0109x elapsed=0:01:07.21    \nframe=   90 fps=1.3 q=54.0 size=       1KiB time=00:00:00.74 bitrate=   6.0kbits/s speed=0.011x elapsed=0:01:07.72    \nframe=   91 fps=1.3 q=52.0 size=       1KiB time=00:00:00.75 bitrate=   6.0kbits/s speed=0.011x elapsed=0:01:08.24    \nframe=   92 fps=1.3 q=50.0 size=       1KiB time=00:00:00.75 bitrate=   5.9kbits/s speed=0.011x elapsed=0:01:08.75    \nframe=   93 fps=1.3 q=48.0 size=       1KiB time=00:00:00.76 bitrate=   5.8kbits/s speed=0.0111x elapsed=0:01:09.26    \nframe=   95 fps=1.4 q=49.0 size=       1KiB time=00:00:00.78 bitrate=   5.7kbits/s speed=0.0112x elapsed=0:01:09.78    \nframe=   95 fps=1.4 q=49.0 size=       1KiB time=00:00:00.78 bitrate=   5.7kbits/s speed=0.0111x elapsed=0:01:10.32    \nframe=   97 fps=1.4 q=33.0 size=       1KiB time=00:00:00.80 bitrate=   5.6kbits/s speed=0.0113x elapsed=0:01:10.83    \nframe=   97 fps=1.4 q=33.0 size=       1KiB time=00:00:00.80 bitrate=   5.6kbits/s speed=0.0112x elapsed=0:01:11.35    \nframe=   98 fps=1.4 q=53.0 size=       1KiB time=00:00:00.80 bitrate=   5.5kbits/s speed=0.0112x elapsed=0:01:11.87    \nframe=   98 fps=1.4 q=53.0 size=       1KiB time=00:00:00.80 bitrate=   5.5kbits/s speed=0.0112x elapsed=0:01:12.38    \nframe=   99 fps=1.4 q=52.0 size=       1KiB time=00:00:00.81 bitrate=   5.5kbits/s speed=0.0112x elapsed=0:01:12.89    \nframe=   99 fps=1.3 q=52.0 size=       1KiB time=00:00:00.81 bitrate=   5.5kbits/s speed=0.0111x elapsed=0:01:13.41    \nframe=  100 fps=1.4 q=50.0 size=       1KiB time=00:00:00.82 bitrate=   5.4kbits/s speed=0.0112x elapsed=0:01:13.92    \nframe=  101 fps=1.4 q=49.0 size=       1KiB time=00:00:00.83 bitrate=   5.4kbits/s speed=0.0112x elapsed=0:01:14.44    \nframe=  102 fps=1.4 q=51.0 size=       1KiB time=00:00:00.84 bitrate=   5.3kbits/s speed=0.0112x elapsed=0:01:14.95    \nframe=  103 fps=1.4 q=48.0 size=       1KiB time=00:00:00.85 bitrate=   5.3kbits/s speed=0.0113x elapsed=0:01:15.47    \nframe=  103 fps=1.4 q=48.0 size=       1KiB time=00:00:00.85 bitrate=   5.3kbits/s speed=0.0112x elapsed=0:01:15.98    \nframe=  104 fps=1.4 q=51.0 size=       1KiB time=00:00:00.85 bitrate=   5.2kbits/s speed=0.0112x elapsed=0:01:16.50    \nframe=  105 fps=1.4 q=44.0 size=       1KiB time=00:00:00.86 bitrate=   5.2kbits/s speed=0.0113x elapsed=0:01:17.02    \nframe=  106 fps=1.4 q=53.0 size=       1KiB time=00:00:00.87 bitrate=   5.1kbits/s speed=0.0113x elapsed=0:01:17.53    \nframe=  107 fps=1.4 q=51.0 size=       1KiB time=00:00:00.88 bitrate=   5.1kbits/s speed=0.0113x elapsed=0:01:18.04    \nframe=  107 fps=1.4 q=51.0 size=       1KiB time=00:00:00.88 bitrate=   5.1kbits/s speed=0.0112x elapsed=0:01:18.56    \nframe=  107 fps=1.4 q=51.0 size=       1KiB time=00:00:00.88 bitrate=   5.1kbits/s speed=0.0112x elapsed=0:01:19.09    \nframe=  108 fps=1.4 q=53.0 size=       1KiB time=00:00:00.89 bitrate=   5.0kbits/s speed=0.0112x elapsed=0:01:19.60    \nframe=  109 fps=1.4 q=47.0 size=       1KiB time=00:00:00.90 bitrate=   5.0kbits/s speed=0.0112x elapsed=0:01:20.11    \nframe=  112 fps=1.4 q=52.0 size=       1KiB time=00:00:00.92 bitrate=   4.8kbits/s speed=0.0115x elapsed=0:01:20.63    \nframe=  112 fps=1.4 q=52.0 size=       1KiB time=00:00:00.92 bitrate=   4.8kbits/s speed=0.0114x elapsed=0:01:21.14    \nframe=  112 fps=1.4 q=52.0 size=       1KiB time=00:00:00.92 bitrate=   4.8kbits/s speed=0.0113x elapsed=0:01:21.66    \nframe=  114 fps=1.4 q=55.0 size=       1KiB time=00:00:00.94 bitrate=   4.8kbits/s speed=0.0115x elapsed=0:01:22.18    \nframe=  115 fps=1.4 q=53.0 size=       1KiB time=00:00:00.95 bitrate=   4.7kbits/s speed=0.0115x elapsed=0:01:22.69    \nframe=  115 fps=1.4 q=53.0 size=       1KiB time=00:00:00.95 bitrate=   4.7kbits/s speed=0.0114x elapsed=0:01:23.21    \nframe=  117 fps=1.4 q=51.0 size=       1KiB time=00:00:00.96 bitrate=   4.6kbits/s speed=0.0115x elapsed=0:01:23.72    \nframe=  118 fps=1.4 q=55.0 size=       1KiB time=00:00:00.97 bitrate=   4.6kbits/s speed=0.0116x elapsed=0:01:24.23    \nframe=  118 fps=1.4 q=55.0 size=       1KiB time=00:00:00.97 bitrate=   4.6kbits/s speed=0.0115x elapsed=0:01:24.75    \nframe=  119 fps=1.4 q=53.0 size=       1KiB time=00:00:00.98 bitrate=   4.6kbits/s speed=0.0115x elapsed=0:01:25.26    \nframe=  119 fps=1.4 q=53.0 size=       1KiB time=00:00:00.98 bitrate=   4.6kbits/s speed=0.0115x elapsed=0:01:25.80    \nframe=  120 fps=1.4 q=55.0 size=       1KiB time=00:00:00.99 bitrate=   4.5kbits/s speed=0.0115x elapsed=0:01:26.32    \nframe=  122 fps=1.4 q=55.0 size=       1KiB time=00:00:01.00 bitrate=   4.4kbits/s speed=0.0116x elapsed=0:01:26.84    \nframe=  123 fps=1.4 q=52.0 size=       1KiB time=00:00:01.01 bitrate=   4.4kbits/s speed=0.0116x elapsed=0:01:27.35    \nframe=  125 fps=1.4 q=48.0 size=       1KiB time=00:00:01.03 bitrate=   4.3kbits/s speed=0.0118x elapsed=0:01:27.86    \nframe=  125 fps=1.4 q=48.0 size=       1KiB time=00:00:01.03 bitrate=   4.3kbits/s speed=0.0117x elapsed=0:01:28.38    \nframe=  127 fps=1.4 q=51.0 size=       1KiB time=00:00:01.05 bitrate=   4.3kbits/s speed=0.0118x elapsed=0:01:28.90    \nframe=  128 fps=1.4 q=55.0 size=       1KiB time=00:00:01.05 bitrate=   4.2kbits/s speed=0.0118x elapsed=0:01:29.41    \nframe=  129 fps=1.4 q=33.0 size=       1KiB time=00:00:01.06 bitrate=   4.2kbits/s speed=0.0119x elapsed=0:01:29.92    \nframe=  130 fps=1.4 q=55.0 size=       1KiB time=00:00:01.07 bitrate=   4.2kbits/s speed=0.0119x elapsed=0:01:30.45    \nframe=  132 fps=1.5 q=55.0 size=       1KiB time=00:00:01.09 bitrate=   4.1kbits/s speed=0.012x elapsed=0:01:30.95    \nframe=  134 fps=1.5 q=55.0 size=       1KiB time=00:00:01.10 bitrate=   4.0kbits/s speed=0.0121x elapsed=0:01:31.47    \nframe=  135 fps=1.5 q=53.0 size=       1KiB time=00:00:01.11 bitrate=   4.0kbits/s speed=0.0121x elapsed=0:01:31.99    \nframe=  135 fps=1.5 q=53.0 size=       1KiB time=00:00:01.11 bitrate=   4.0kbits/s speed=0.0121x elapsed=0:01:32.50    \nframe=  137 fps=1.5 q=47.0 size=       1KiB time=00:00:01.13 bitrate=   4.0kbits/s speed=0.0122x elapsed=0:01:33.02    \nframe=  137 fps=1.5 q=47.0 size=       1KiB time=00:00:01.13 bitrate=   4.0kbits/s speed=0.0121x elapsed=0:01:33.53    \nframe=  138 fps=1.5 q=55.0 size=       1KiB time=00:00:01.14 bitrate=   3.9kbits/s speed=0.0121x elapsed=0:01:34.05    \nframe=  139 fps=1.5 q=52.0 size=       1KiB time=00:00:01.15 bitrate=   3.9kbits/s speed=0.0122x elapsed=0:01:34.56    \nframe=  139 fps=1.5 q=52.0 size=       1KiB time=00:00:01.15 bitrate=   3.9kbits/s speed=0.0121x elapsed=0:01:35.07    \nframe=  141 fps=1.5 q=49.0 size=       1KiB time=00:00:01.16 bitrate=   3.8kbits/s speed=0.0122x elapsed=0:01:35.59    \nframe=  143 fps=1.5 q=52.0 size=       1KiB time=00:00:01.18 bitrate=   3.8kbits/s speed=0.0123x elapsed=0:01:36.11    \nframe=  144 fps=1.5 q=56.0 size=       1KiB time=00:00:01.19 bitrate=   3.8kbits/s speed=0.0123x elapsed=0:01:36.63    \nframe=  144 fps=1.5 q=56.0 size=       1KiB time=00:00:01.19 bitrate=   3.8kbits/s speed=0.0123x elapsed=0:01:37.15    \nframe=  145 fps=1.5 q=35.0 size=       1KiB time=00:00:01.20 bitrate=   3.7kbits/s speed=0.0123x elapsed=0:01:37.66    \nframe=  146 fps=1.5 q=56.0 size=       1KiB time=00:00:01.20 bitrate=   3.7kbits/s speed=0.0123x elapsed=0:01:38.17    \nframe=  147 fps=1.5 q=54.0 size=       1KiB time=00:00:01.21 bitrate=   3.7kbits/s speed=0.0123x elapsed=0:01:38.69    \nframe=  148 fps=1.5 q=56.0 size=       1KiB time=00:00:01.22 bitrate=   3.7kbits/s speed=0.0123x elapsed=0:01:39.21    \nframe=  149 fps=1.5 q=52.0 size=       1KiB time=00:00:01.23 bitrate=   3.6kbits/s speed=0.0124x elapsed=0:01:39.72    \nframe=  150 fps=1.5 q=56.0 size=       1KiB time=00:00:01.24 bitrate=   3.6kbits/s speed=0.0124x elapsed=0:01:40.23    \nframe=  150 fps=1.5 q=56.0 size=       1KiB time=00:00:01.24 bitrate=   3.6kbits/s speed=0.0123x elapsed=0:01:40.76    \nframe=  151 fps=1.5 q=54.0 size=       1KiB time=00:00:01.25 bitrate=   3.6kbits/s speed=0.0123x elapsed=0:01:41.27    \nframe=  151 fps=1.5 q=54.0 size=       1KiB time=00:00:01.25 bitrate=   3.6kbits/s speed=0.0123x elapsed=0:01:41.78    \nframe=  152 fps=1.5 q=56.0 size=       1KiB time=00:00:01.25 bitrate=   3.6kbits/s speed=0.0123x elapsed=0:01:42.30    \nframe=  154 fps=1.5 q=57.0 size=       1KiB time=00:00:01.27 bitrate=   3.5kbits/s speed=0.0124x elapsed=0:01:42.82    \nframe=  155 fps=1.5 q=53.0 size=       1KiB time=00:00:01.28 bitrate=   3.5kbits/s speed=0.0124x elapsed=0:01:43.33    \nframe=  156 fps=1.5 q=57.0 size=       1KiB time=00:00:01.29 bitrate=   3.5kbits/s speed=0.0124x elapsed=0:01:43.85    \nframe=  157 fps=1.5 q=49.0 size=       1KiB time=00:00:01.30 bitrate=   3.4kbits/s speed=0.0125x elapsed=0:01:44.36    \nframe=  160 fps=1.5 q=57.0 size=       1KiB time=00:00:01.32 bitrate=   3.4kbits/s speed=0.0126x elapsed=0:01:44.88    \nframe=  160 fps=1.5 q=57.0 size=       1KiB time=00:00:01.32 bitrate=   3.4kbits/s speed=0.0126x elapsed=0:01:45.39    \nframe=  163 fps=1.5 q=55.0 size=       1KiB time=00:00:01.35 bitrate=   3.3kbits/s speed=0.0127x elapsed=0:01:45.90    \nframe=  164 fps=1.5 q=57.0 size=       1KiB time=00:00:01.35 bitrate=   3.3kbits/s speed=0.0128x elapsed=0:01:46.42    \nframe=  166 fps=1.6 q=57.0 size=       1KiB time=00:00:01.37 bitrate=   3.3kbits/s speed=0.0129x elapsed=0:01:46.94    \nframe=  166 fps=1.5 q=57.0 size=       1KiB time=00:00:01.37 bitrate=   3.3kbits/s speed=0.0128x elapsed=0:01:47.45    \nframe=  167 fps=1.5 q=55.0 size=       1KiB time=00:00:01.38 bitrate=   3.2kbits/s speed=0.0128x elapsed=0:01:47.97    \nframe=  167 fps=1.5 q=55.0 size=       1KiB time=00:00:01.38 bitrate=   3.2kbits/s speed=0.0128x elapsed=0:01:48.48    \nframe=  168 fps=1.5 q=57.0 size=       1KiB time=00:00:01.39 bitrate=   3.2kbits/s speed=0.0128x elapsed=0:01:49.01    \nframe=  169 fps=1.5 q=48.0 size=       1KiB time=00:00:01.40 bitrate=   3.2kbits/s speed=0.0128x elapsed=0:01:49.53    \nframe=  170 fps=1.5 q=58.0 size=       1KiB time=00:00:01.40 bitrate=   3.2kbits/s speed=0.0128x elapsed=0:01:50.05    \nframe=  170 fps=1.5 q=58.0 size=       1KiB time=00:00:01.40 bitrate=   3.2kbits/s speed=0.0127x elapsed=0:01:50.56    \nframe=  171 fps=1.5 q=54.0 size=       1KiB time=00:00:01.41 bitrate=   3.2kbits/s speed=0.0128x elapsed=0:01:51.08    \nframe=  173 fps=1.6 q=51.0 size=       1KiB time=00:00:01.43 bitrate=   3.1kbits/s speed=0.0128x elapsed=0:01:51.60    \nframe=  175 fps=1.6 q=54.0 size=       1KiB time=00:00:01.45 bitrate=   3.1kbits/s speed=0.0129x elapsed=0:01:52.12    \nframe=  179 fps=1.6 q=56.0 size=       1KiB time=00:00:01.48 bitrate=   3.0kbits/s speed=0.0132x elapsed=0:01:52.63    \nframe=  179 fps=1.6 q=56.0 size=       1KiB time=00:00:01.48 bitrate=   3.0kbits/s speed=0.0131x elapsed=0:01:53.15    \nframe=  180 fps=1.6 q=58.0 size=       1KiB time=00:00:01.49 bitrate=   3.0kbits/s speed=0.0131x elapsed=0:01:53.67    \nframe=  182 fps=1.6 q=58.0 size=       1KiB time=00:00:01.50 bitrate=   3.0kbits/s speed=0.0132x elapsed=0:01:54.19    \nframe=  183 fps=1.6 q=56.0 size=       1KiB time=00:00:01.51 bitrate=   3.0kbits/s speed=0.0132x elapsed=0:01:54.73    \nframe=  184 fps=1.6 q=58.0 size=       1KiB time=00:00:01.52 bitrate=   2.9kbits/s speed=0.0132x elapsed=0:01:55.26    \nframe=  186 fps=1.6 q=59.0 size=       1KiB time=00:00:01.54 bitrate=   2.9kbits/s speed=0.0133x elapsed=0:01:55.87    \nframe=  187 fps=1.6 q=55.0 size=       1KiB time=00:00:01.55 bitrate=   2.9kbits/s speed=0.0133x elapsed=0:01:56.39    \nframe=  187 fps=1.6 q=55.0 size=       1KiB time=00:00:01.55 bitrate=   2.9kbits/s speed=0.0133x elapsed=0:01:56.92    \nframe=  189 fps=1.6 q=52.0 size=       1KiB time=00:00:01.56 bitrate=   2.9kbits/s speed=0.0133x elapsed=0:01:57.44    \nframe=  192 fps=1.6 q=59.0 size=       1KiB time=00:00:01.59 bitrate=   2.8kbits/s speed=0.0135x elapsed=0:01:57.97    \nframe=  192 fps=1.6 q=59.0 size=       1KiB time=00:00:01.59 bitrate=   2.8kbits/s speed=0.0134x elapsed=0:01:58.49    \nframe=  194 fps=1.6 q=59.0 size=       1KiB time=00:00:01.60 bitrate=   2.8kbits/s speed=0.0135x elapsed=0:01:59.02    \nframe=  195 fps=1.6 q=57.0 size=       1KiB time=00:00:01.61 bitrate=   2.8kbits/s speed=0.0135x elapsed=0:01:59.55    \nframe=  195 fps=1.6 q=57.0 size=       1KiB time=00:00:01.61 bitrate=   2.8kbits/s speed=0.0135x elapsed=0:02:00.07    \nframe=  197 fps=1.6 q=55.0 size=       1KiB time=00:00:01.63 bitrate=   2.7kbits/s speed=0.0135x elapsed=0:02:00.59    \nframe=  198 fps=1.6 q=59.0 size=       1KiB time=00:00:01.64 bitrate=   2.7kbits/s speed=0.0135x elapsed=0:02:01.16    \nframe=  198 fps=1.6 q=59.0 size=       1KiB time=00:00:01.64 bitrate=   2.7kbits/s speed=0.0135x elapsed=0:02:01.69    \nframe=  199 fps=1.6 q=57.0 size=       1KiB time=00:00:01.65 bitrate=   2.7kbits/s speed=0.0135x elapsed=0:02:02.20    \nframe=  200 fps=1.6 q=59.0 size=       1KiB time=00:00:01.65 bitrate=   2.7kbits/s speed=0.0135x elapsed=0:02:02.72    \nframe=  201 fps=1.6 q=51.0 size=       1KiB time=00:00:01.66 bitrate=   2.7kbits/s speed=0.0135x elapsed=0:02:03.27    \nframe=  203 fps=1.6 q=56.0 size=       1KiB time=00:00:01.68 bitrate=   2.7kbits/s speed=0.0136x elapsed=0:02:03.78    \nframe=  204 fps=1.6 q=60.0 size=       1KiB time=00:00:01.69 bitrate=   2.6kbits/s speed=0.0136x elapsed=0:02:04.30    \nframe=  206 fps=1.7 q=60.0 size=       1KiB time=00:00:01.70 bitrate=   2.6kbits/s speed=0.0137x elapsed=0:02:04.83    \nframe=  209 fps=1.7 q=40.0 size=       1KiB time=00:00:01.73 bitrate=   2.6kbits/s speed=0.0138x elapsed=0:02:05.34    \nframe=  210 fps=1.7 q=60.0 size=       1KiB time=00:00:01.74 bitrate=   2.6kbits/s speed=0.0138x elapsed=0:02:05.86    \nframe=  211 fps=1.7 q=58.0 size=       1KiB time=00:00:01.75 bitrate=   2.6kbits/s speed=0.0138x elapsed=0:02:06.38    \nframe=  212 fps=1.7 q=60.0 size=       1KiB time=00:00:01.75 bitrate=   2.5kbits/s speed=0.0139x elapsed=0:02:06.94    \nframe=  213 fps=1.7 q=56.0 size=       1KiB time=00:00:01.76 bitrate=   2.5kbits/s speed=0.0139x elapsed=0:02:07.45    \nframe=  214 fps=1.7 q=60.0 size=       1KiB time=00:00:01.77 bitrate=   2.5kbits/s speed=0.0139x elapsed=0:02:07.97    \nframe=  214 fps=1.7 q=60.0 size=       1KiB time=00:00:01.77 bitrate=   2.5kbits/s speed=0.0138x elapsed=0:02:08.52    \nframe=  215 fps=1.7 q=58.0 size=       1KiB time=00:00:01.78 bitrate=   2.5kbits/s speed=0.0138x elapsed=0:02:09.08    \nframe=  215 fps=1.7 q=58.0 size=       1KiB time=00:00:01.78 bitrate=   2.5kbits/s speed=0.0138x elapsed=0:02:09.60    \nframe=  217 fps=1.7 q=52.0 size=       1KiB time=00:00:01.80 bitrate=   2.5kbits/s speed=0.0138x elapsed=0:02:10.11    \nframe=  219 fps=1.7 q=57.0 size=       1KiB time=00:00:01.81 bitrate=   2.5kbits/s speed=0.0139x elapsed=0:02:10.62    \nframe=  220 fps=1.7 q=60.0 size=       1KiB time=00:00:01.82 bitrate=   2.5kbits/s speed=0.0139x elapsed=0:02:11.16    \nframe=  221 fps=1.7 q=54.0 size=       1KiB time=00:00:01.83 bitrate=   2.4kbits/s speed=0.0139x elapsed=0:02:11.70    \nframe=  222 fps=1.7 q=60.0 size=       1KiB time=00:00:01.84 bitrate=   2.4kbits/s speed=0.0139x elapsed=0:02:12.22    \nframe=  224 fps=1.7 q=60.0 size=       1KiB time=00:00:01.85 bitrate=   2.4kbits/s speed=0.014x elapsed=0:02:12.75    \nframe=  225 fps=1.7 q=42.0 size=       1KiB time=00:00:01.86 bitrate=   2.4kbits/s speed=0.014x elapsed=0:02:13.27    \nframe=  227 fps=1.7 q=59.0 size=       1KiB time=00:00:01.88 bitrate=   2.4kbits/s speed=0.0141x elapsed=0:02:13.79    \nframe=  228 fps=1.7 q=60.0 size=       1KiB time=00:00:01.89 bitrate=   2.4kbits/s speed=0.0141x elapsed=0:02:14.31    \nframe=  229 fps=1.7 q=57.0 size=       1KiB time=00:00:01.90 bitrate=   2.4kbits/s speed=0.0141x elapsed=0:02:14.84    \nframe=  229 fps=1.7 q=57.0 size=       1KiB time=00:00:01.90 bitrate=   2.4kbits/s speed=0.014x elapsed=0:02:15.37    \nframe=  230 fps=1.7 q=60.0 size=       1KiB time=00:00:01.90 bitrate=   2.3kbits/s speed=0.014x elapsed=0:02:15.87    \nframe=  230 fps=1.7 q=60.0 size=       1KiB time=00:00:01.90 bitrate=   2.3kbits/s speed=0.014x elapsed=0:02:16.39    \nframe=  234 fps=1.7 q=60.0 size=       1KiB time=00:00:01.94 bitrate=   2.3kbits/s speed=0.0142x elapsed=0:02:16.92    \nframe=  234 fps=1.7 q=60.0 size=       1KiB time=00:00:01.94 bitrate=   2.3kbits/s speed=0.0141x elapsed=0:02:17.48    \nframe=  236 fps=1.7 q=60.0 size=       1KiB time=00:00:01.95 bitrate=   2.3kbits/s speed=0.0142x elapsed=0:02:17.99    \nframe=  239 fps=1.7 q=57.0 size=       1KiB time=00:00:01.98 bitrate=   2.3kbits/s speed=0.0143x elapsed=0:02:18.50    \nframe=  240 fps=1.7 q=60.0 size=       1KiB time=00:00:01.99 bitrate=   2.2kbits/s speed=0.0143x elapsed=0:02:19.02    \nframe=  241 fps=1.7 q=44.0 size=       1KiB time=00:00:02.00 bitrate=   2.2kbits/s speed=0.0143x elapsed=0:02:19.55    \nframe=  242 fps=1.7 q=60.0 size=       1KiB time=00:00:02.00 bitrate=   2.2kbits/s speed=0.0143x elapsed=0:02:20.06    \nframe=  243 fps=1.7 q=59.0 size=       1KiB time=00:00:02.00 bitrate=   2.2kbits/s speed=0.0143x elapsed=0:02:20.58    \nframe=  243 fps=1.7 q=59.0 size=       1KiB time=00:00:02.01 bitrate=   2.2kbits/s speed=0.0143x elapsed=0:02:21.13    \nframe=  244 fps=1.7 q=60.0 size=       1KiB time=00:00:02.02 bitrate=   2.2kbits/s speed=0.0143x elapsed=0:02:21.64    \nframe=  245 fps=1.7 q=57.0 size=       1KiB time=00:00:02.03 bitrate=   2.2kbits/s speed=0.0143x elapsed=0:02:22.16    \nframe=  245 fps=1.7 q=57.0 size=       1KiB time=00:00:02.03 bitrate=   2.2kbits/s speed=0.0143x elapsed=0:02:22.68    \nframe=  246 fps=1.7 q=60.0 size=       1KiB time=00:00:02.04 bitrate=   2.2kbits/s speed=0.0143x elapsed=0:02:23.20    \nframe=  246 fps=1.7 q=60.0 size=       1KiB time=00:00:02.04 bitrate=   2.2kbits/s speed=0.0142x elapsed=0:02:23.72    \nframe=  246 fps=1.7 q=60.0 size=       1KiB time=00:00:02.04 bitrate=   2.2kbits/s speed=0.0142x elapsed=0:02:24.23    \nframe=  248 fps=1.7 q=60.0 size=       1KiB time=00:00:02.05 bitrate=   2.2kbits/s speed=0.0142x elapsed=0:02:24.81    \nframe=  250 fps=1.7 q=60.0 size=       1KiB time=00:00:02.07 bitrate=   2.2kbits/s speed=0.0143x elapsed=0:02:25.36    \nframe=  251 fps=1.7 q=57.0 size=       1KiB time=00:00:02.08 bitrate=   2.2kbits/s speed=0.0143x elapsed=0:02:26.02    \nframe=  252 fps=1.7 q=61.0 size=       1KiB time=00:00:02.09 bitrate=   2.1kbits/s speed=0.0143x elapsed=0:02:26.56    \nframe=  253 fps=1.7 q=54.0 size=       1KiB time=00:00:02.10 bitrate=   2.1kbits/s speed=0.0143x elapsed=0:02:27.16    \nframe=  255 fps=1.7 q=57.0 size=       1KiB time=00:00:02.11 bitrate=   2.1kbits/s speed=0.0143x elapsed=0:02:27.68    \nframe=  257 fps=1.7 q=44.0 size=       1KiB time=00:00:02.13 bitrate=   2.1kbits/s speed=0.0144x elapsed=0:02:28.20    \nframe=  259 fps=1.7 q=59.0 size=       1KiB time=00:00:02.15 bitrate=   2.1kbits/s speed=0.0145x elapsed=0:02:28.72    \nframe=  261 fps=1.7 q=57.0 size=       1KiB time=00:00:02.16 bitrate=   2.1kbits/s speed=0.0145x elapsed=0:02:29.23    \nframe=  261 fps=1.7 q=57.0 size=       1KiB time=00:00:02.16 bitrate=   2.1kbits/s speed=0.0145x elapsed=0:02:29.81    \nframe=  262 fps=1.7 q=61.0 size=       1KiB time=00:00:02.17 bitrate=   2.1kbits/s speed=0.0145x elapsed=0:02:30.35    \nframe=  262 fps=1.7 q=61.0 size=       1KiB time=00:00:02.17 bitrate=   2.1kbits/s speed=0.0144x elapsed=0:02:30.86    \nframe=  264 fps=1.7 q=61.0 size=       1KiB time=00:00:02.19 bitrate=   2.0kbits/s speed=0.0145x elapsed=0:02:31.38    \nframe=  265 fps=1.7 q=53.0 size=       1KiB time=00:00:02.20 bitrate=   2.0kbits/s speed=0.0145x elapsed=0:02:31.91    \nframe=  266 fps=1.7 q=61.0 size=       1KiB time=00:00:02.20 bitrate=   2.0kbits/s speed=0.0145x elapsed=0:02:32.42    \nframe=  267 fps=1.7 q=58.0 size=       1KiB time=00:00:02.21 bitrate=   2.0kbits/s speed=0.0145x elapsed=0:02:32.97    \nframe=  269 fps=1.8 q=55.0 size=       1KiB time=00:00:02.23 bitrate=   2.0kbits/s speed=0.0145x elapsed=0:02:33.53    \nframe=  270 fps=1.8 q=61.0 size=       1KiB time=00:00:02.24 bitrate=   2.0kbits/s speed=0.0146x elapsed=0:02:34.05    \nframe=  272 fps=1.8 q=61.0 size=       1KiB time=00:00:02.25 bitrate=   2.0kbits/s speed=0.0146x elapsed=0:02:34.56    \nframe=  273 fps=1.8 q=44.0 size=       1KiB time=00:00:02.26 bitrate=   2.0kbits/s speed=0.0146x elapsed=0:02:35.14    \nframe=  274 fps=1.8 q=61.0 size=       1KiB time=00:00:02.27 bitrate=   2.0kbits/s speed=0.0146x elapsed=0:02:35.69    \nframe=  275 fps=1.8 q=60.0 size=       1KiB time=00:00:02.28 bitrate=   2.0kbits/s speed=0.0146x elapsed=0:02:36.21    \nframe=  276 fps=1.8 q=61.0 size=       1KiB time=00:00:02.29 bitrate=   2.0kbits/s speed=0.0146x elapsed=0:02:36.73    \nframe=  277 fps=1.8 q=58.0 size=       1KiB time=00:00:02.30 bitrate=   1.9kbits/s speed=0.0146x elapsed=0:02:37.25    \nframe=  277 fps=1.8 q=58.0 size=       1KiB time=00:00:02.30 bitrate=   1.9kbits/s speed=0.0146x elapsed=0:02:37.93    \nframe=  278 fps=1.8 q=61.0 size=       1KiB time=00:00:02.30 bitrate=   1.9kbits/s speed=0.0146x elapsed=0:02:38.46    \nframe=  280 fps=1.8 q=61.0 size=       1KiB time=00:00:02.32 bitrate=   1.9kbits/s speed=0.0146x elapsed=0:02:39.01    \nframe=  281 fps=1.8 q=54.0 size=       1KiB time=00:00:02.33 bitrate=   1.9kbits/s speed=0.0146x elapsed=0:02:39.64    \nframe=  282 fps=1.8 q=61.0 size=       1KiB time=00:00:02.34 bitrate=   1.9kbits/s speed=0.0146x elapsed=0:02:40.20    \nframe=  285 fps=1.8 q=55.0 size=       1KiB time=00:00:02.36 bitrate=   1.9kbits/s speed=0.0147x elapsed=0:02:40.73    \nframe=  289 fps=1.8 q=45.0 size=       1KiB time=00:00:02.39 bitrate=   1.9kbits/s speed=0.0148x elapsed=0:02:41.28    \nframe=  290 fps=1.8 q=62.0 size=       1KiB time=00:00:02.40 bitrate=   1.9kbits/s speed=0.0148x elapsed=0:02:41.83    \nframe=  290 fps=1.8 q=62.0 size=       1KiB time=00:00:02.40 bitrate=   1.9kbits/s speed=0.0148x elapsed=0:02:42.38    \nframe=  293 fps=1.8 q=58.0 size=       1KiB time=00:00:02.43 bitrate=   1.8kbits/s speed=0.0149x elapsed=0:02:42.96    \nframe=  294 fps=1.8 q=62.0 size=       1KiB time=00:00:02.44 bitrate=   1.8kbits/s speed=0.0149x elapsed=0:02:43.50    \nframe=  295 fps=1.8 q=60.0 size=       1KiB time=00:00:02.45 bitrate=   1.8kbits/s speed=0.0149x elapsed=0:02:44.10    \nframe=  297 fps=1.8 q=54.0 size=       1KiB time=00:00:02.46 bitrate=   1.8kbits/s speed=0.015x elapsed=0:02:44.64    \nframe=  299 fps=1.8 q=59.0 size=       1KiB time=00:00:02.47 bitrate=   1.8kbits/s speed=0.015x elapsed=0:02:45.18    \nframe=  300 fps=1.8 q=61.0 size=       1KiB time=00:00:02.49 bitrate=   1.8kbits/s speed=0.015x elapsed=0:02:45.82    \nframe=  302 fps=1.8 q=62.0 size=       1KiB time=00:00:02.50 bitrate=   1.8kbits/s speed=0.0151x elapsed=0:02:46.43    \nframe=  307 fps=1.8 q=61.0 size=       1KiB time=00:00:02.54 bitrate=   1.8kbits/s speed=0.0152x elapsed=0:02:47.03    \nframe=  308 fps=1.8 q=62.0 size=       1KiB time=00:00:02.55 bitrate=   1.8kbits/s speed=0.0153x elapsed=0:02:47.69    \nframe=  309 fps=1.8 q=59.0 size=       1KiB time=00:00:02.56 bitrate=   1.7kbits/s speed=0.0153x elapsed=0:02:48.21    \nframe=  309 fps=1.8 q=59.0 size=       1KiB time=00:00:02.56 bitrate=   1.7kbits/s speed=0.0152x elapsed=0:02:48.74    \nframe=  311 fps=1.8 q=57.0 size=       1KiB time=00:00:02.57 bitrate=   1.7kbits/s speed=0.0152x elapsed=0:02:49.35    \nframe=  313 fps=1.8 q=55.0 size=       1KiB time=00:00:02.60 bitrate=   1.7kbits/s speed=0.0153x elapsed=0:02:49.98    \nframe=  314 fps=1.8 q=62.0 size=       1KiB time=00:00:02.60 bitrate=   1.7kbits/s speed=0.0153x elapsed=0:02:50.49    \nframe=  315 fps=1.8 q=59.0 size=       1KiB time=00:00:02.61 bitrate=   1.7kbits/s speed=0.0153x elapsed=0:02:51.08    \nframe=  317 fps=1.8 q=56.0 size=       1KiB time=00:00:02.63 bitrate=   1.7kbits/s speed=0.0153x elapsed=0:02:51.62    \nframe=  318 fps=1.8 q=61.0 size=       1KiB time=00:00:02.64 bitrate=   1.7kbits/s speed=0.0153x elapsed=0:02:52.25    \nframe=  321 fps=1.9 q=46.0 size=       1KiB time=00:00:02.66 bitrate=   1.7kbits/s speed=0.0154x elapsed=0:02:52.78    \nframe=  322 fps=1.9 q=62.0 size=       1KiB time=00:00:02.67 bitrate=   1.7kbits/s speed=0.0154x elapsed=0:02:53.30    \nframe=  323 fps=1.9 q=61.0 size=       1KiB time=00:00:02.68 bitrate=   1.7kbits/s speed=0.0154x elapsed=0:02:53.81    \nframe=  325 fps=1.9 q=59.0 size=       1KiB time=00:00:02.70 bitrate=   1.7kbits/s speed=0.0155x elapsed=0:02:54.33    \nframe=  326 fps=1.9 q=62.0 size=       1KiB time=00:00:02.70 bitrate=   1.7kbits/s speed=0.0155x elapsed=0:02:54.86    \nframe=  326 fps=1.9 q=62.0 size=       1KiB time=00:00:02.70 bitrate=   1.7kbits/s speed=0.0154x elapsed=0:02:55.39    \nframe=  329 fps=1.9 q=55.0 size=       1KiB time=00:00:02.73 bitrate=   1.6kbits/s speed=0.0155x elapsed=0:02:55.90    \nframe=  330 fps=1.9 q=62.0 size=       1KiB time=00:00:02.74 bitrate=   1.6kbits/s speed=0.0155x elapsed=0:02:56.48    \nframe=  332 fps=1.9 q=62.0 size=       1KiB time=00:00:02.75 bitrate=   1.6kbits/s speed=0.0156x elapsed=0:02:57.00    \nframe=  333 fps=1.9 q=56.0 size=       1KiB time=00:00:02.76 bitrate=   1.6kbits/s speed=0.0156x elapsed=0:02:57.52    \nframe=  335 fps=1.9 q=59.0 size=       1KiB time=00:00:02.78 bitrate=   1.6kbits/s speed=0.0156x elapsed=0:02:58.05    \nframe=  337 fps=1.9 q=47.0 size=       1KiB time=00:00:02.79 bitrate=   1.6kbits/s speed=0.0156x elapsed=0:02:58.64    \nframe=  338 fps=1.9 q=62.0 size=       1KiB time=00:00:02.80 bitrate=   1.6kbits/s speed=0.0157x elapsed=0:02:59.25    \nframe=  341 fps=1.9 q=59.0 size=       1KiB time=00:00:02.83 bitrate=   1.6kbits/s speed=0.0158x elapsed=0:02:59.88    \nframe=  341 fps=1.9 q=59.0 size=       1KiB time=00:00:02.83 bitrate=   1.6kbits/s speed=0.0157x elapsed=0:03:00.40    \nframe=  342 fps=1.9 q=62.0 size=       1KiB time=00:00:02.84 bitrate=   1.6kbits/s speed=0.0157x elapsed=0:03:00.91    \nframe=  343 fps=1.9 q=61.0 size=       1KiB time=00:00:02.85 bitrate=   1.6kbits/s speed=0.0157x elapsed=0:03:01.42    \nframe=  346 fps=1.9 q=61.0 size=       1KiB time=00:00:02.87 bitrate=   1.6kbits/s speed=0.0158x elapsed=0:03:01.94    \nframe=  346 fps=1.9 q=61.0 size=       1KiB time=00:00:02.87 bitrate=   1.6kbits/s speed=0.0158x elapsed=0:03:02.46    \nframe=  348 fps=1.9 q=62.0 size=       1KiB time=00:00:02.89 bitrate=   1.5kbits/s speed=0.0158x elapsed=0:03:02.97    \nframe=  350 fps=1.9 q=62.0 size=       1KiB time=00:00:02.90 bitrate=   1.5kbits/s speed=0.0159x elapsed=0:03:03.48    \nframe=  354 fps=1.9 q=62.0 size=       1KiB time=00:00:02.94 bitrate=   1.5kbits/s speed=0.016x elapsed=0:03:04.00    \nframe=  357 fps=1.9 q=59.0 size=       1KiB time=00:00:02.96 bitrate=   1.5kbits/s speed=0.0161x elapsed=0:03:04.52    \nframe=  359 fps=1.9 q=57.0 size=       1KiB time=00:00:02.98 bitrate=   1.5kbits/s speed=0.0161x elapsed=0:03:05.03    \nframe=  362 fps=2.0 q=62.0 size=       1KiB time=00:00:03.00 bitrate=   1.5kbits/s speed=0.0162x elapsed=0:03:05.55    \nframe=  364 fps=2.0 q=62.0 size=       1KiB time=00:00:03.02 bitrate=   1.5kbits/s speed=0.0163x elapsed=0:03:06.07    \nframe=  367 fps=2.0 q=59.0 size=       1KiB time=00:00:03.05 bitrate=   1.5kbits/s speed=0.0163x elapsed=0:03:06.58    \nframe=  370 fps=2.0 q=62.0 size=       1KiB time=00:00:03.07 bitrate=   1.5kbits/s speed=0.0164x elapsed=0:03:07.10    \nframe=  373 fps=2.0 q=59.0 size=       1KiB time=00:00:03.10 bitrate=   1.4kbits/s speed=0.0165x elapsed=0:03:07.61    \nframe=  374 fps=2.0 q=63.0 size=       1KiB time=00:00:03.10 bitrate=   1.4kbits/s speed=0.0165x elapsed=0:03:08.13    \nframe=  376 fps=2.0 q=62.0 size=       1KiB time=00:00:03.12 bitrate=   1.4kbits/s speed=0.0166x elapsed=0:03:08.81    \nframe=  378 fps=2.0 q=62.0 size=       1KiB time=00:00:03.14 bitrate=   1.4kbits/s speed=0.0166x elapsed=0:03:09.31    \nframe=  378 fps=2.0 q=62.0 size=       1KiB time=00:00:03.14 bitrate=   1.4kbits/s speed=0.0165x elapsed=0:03:09.83    \nframe=  380 fps=2.0 q=62.0 size=       1KiB time=00:00:03.15 bitrate=   1.4kbits/s speed=0.0166x elapsed=0:03:10.35    \nframe=  382 fps=2.0 q=62.0 size=       1KiB time=00:00:03.17 bitrate=   1.4kbits/s speed=0.0166x elapsed=0:03:10.86    \nframe=  385 fps=2.0 q=48.0 size=       1KiB time=00:00:03.20 bitrate=   1.4kbits/s speed=0.0167x elapsed=0:03:11.39    \nframe=  386 fps=2.0 q=62.0 size=       1KiB time=00:00:03.20 bitrate=   1.4kbits/s speed=0.0167x elapsed=0:03:11.90    \nframe=  386 fps=2.0 q=62.0 size=       1KiB time=00:00:03.20 bitrate=   1.4kbits/s speed=0.0167x elapsed=0:03:12.41    \nframe=  388 fps=2.0 q=62.0 size=       1KiB time=00:00:03.22 bitrate=   1.4kbits/s speed=0.0167x elapsed=0:03:12.92    \nframe=  389 fps=2.0 q=60.0 size=       1KiB time=00:00:03.23 bitrate=   1.4kbits/s speed=0.0167x elapsed=0:03:13.44    \nframe=  389 fps=2.0 q=60.0 size=       1KiB time=00:00:03.23 bitrate=   1.4kbits/s speed=0.0167x elapsed=0:03:13.96    \nframe=  390 fps=2.0 q=60.0 size=       1KiB time=00:00:03.24 bitrate=   1.4kbits/s speed=0.0167x elapsed=0:03:14.48    \nframe=  393 fps=2.0 q=57.0 size=       1KiB time=00:00:03.26 bitrate=   1.4kbits/s speed=0.0168x elapsed=0:03:14.99    \nframe=  394 fps=2.0 q=62.0 size=       1KiB time=00:00:03.27 bitrate=   1.4kbits/s speed=0.0168x elapsed=0:03:15.51    \nframe=  397 fps=2.0 q=57.0 size=       1KiB time=00:00:03.30 bitrate=   1.4kbits/s speed=0.0168x elapsed=0:03:16.01    \nframe=  399 fps=2.0 q=59.0 size=       1KiB time=00:00:03.31 bitrate=   1.4kbits/s speed=0.0169x elapsed=0:03:16.53    \nframe=  402 fps=2.0 q=62.0 size=       1KiB time=00:00:03.34 bitrate=   1.3kbits/s speed=0.017x elapsed=0:03:17.05    \nframe=  405 fps=2.0 q=59.0 size=       1KiB time=00:00:03.36 bitrate=   1.3kbits/s speed=0.017x elapsed=0:03:17.57    \nframe=  405 fps=2.0 q=59.0 size=       1KiB time=00:00:03.36 bitrate=   1.3kbits/s speed=0.017x elapsed=0:03:18.08    \nframe=  407 fps=2.0 q=61.0 size=       1KiB time=00:00:03.38 bitrate=   1.3kbits/s speed=0.017x elapsed=0:03:18.60    \nframe=  409 fps=2.1 q=56.0 size=       1KiB time=00:00:03.40 bitrate=   1.3kbits/s speed=0.0171x elapsed=0:03:19.12    \nframe=  410 fps=2.1 q=61.0 size=       1KiB time=00:00:03.40 bitrate=   1.3kbits/s speed=0.0171x elapsed=0:03:19.62    \nframe=  412 fps=2.1 q=62.0 size=       1KiB time=00:00:03.42 bitrate=   1.3kbits/s speed=0.0171x elapsed=0:03:20.15    \nframe=  414 fps=2.1 q=61.0 size=       1KiB time=00:00:03.44 bitrate=   1.3kbits/s speed=0.0172x elapsed=0:03:20.67    \nframe=  417 fps=2.1 q=49.0 size=       1KiB time=00:00:03.46 bitrate=   1.3kbits/s speed=0.0172x elapsed=0:03:21.17    \nframe=  421 fps=2.1 q=59.0 size=       1KiB time=00:00:03.50 bitrate=   1.3kbits/s speed=0.0174x elapsed=0:03:21.69    \nframe=  422 fps=2.1 q=62.0 size=       1KiB time=00:00:03.50 bitrate=   1.3kbits/s speed=0.0173x elapsed=0:03:22.21    \nframe=  423 fps=2.1 q=61.0 size=       1KiB time=00:00:03.51 bitrate=   1.3kbits/s speed=0.0173x elapsed=0:03:22.72    \nframe=  425 fps=2.1 q=55.0 size=       1KiB time=00:00:03.53 bitrate=   1.3kbits/s speed=0.0174x elapsed=0:03:23.23    \nframe=  426 fps=2.1 q=62.0 size=       1KiB time=00:00:03.54 bitrate=   1.3kbits/s speed=0.0174x elapsed=0:03:23.75    \nframe=  427 fps=2.1 q=59.0 size=       1KiB time=00:00:03.55 bitrate=   1.3kbits/s speed=0.0174x elapsed=0:03:24.27    \nframe=  428 fps=2.1 q=62.0 size=       1KiB time=00:00:03.55 bitrate=   1.3kbits/s speed=0.0174x elapsed=0:03:24.79    \nframe=  431 fps=2.1 q=59.0 size=       1KiB time=00:00:03.58 bitrate=   1.3kbits/s speed=0.0175x elapsed=0:03:25.30    \nframe=  433 fps=2.1 q=48.0 size=       1KiB time=00:00:03.60 bitrate=   1.2kbits/s speed=0.0175x elapsed=0:03:25.82    \nframe=  434 fps=2.1 q=62.0 size=       1KiB time=00:00:03.60 bitrate=   1.2kbits/s speed=0.0175x elapsed=0:03:26.34    \nframe=  437 fps=2.1 q=59.0 size=       1KiB time=00:00:03.63 bitrate=   1.2kbits/s speed=0.0176x elapsed=0:03:26.85    \nframe=  437 fps=2.1 q=59.0 size=       1KiB time=00:00:03.63 bitrate=   1.2kbits/s speed=0.0175x elapsed=0:03:27.37    \nframe=  438 fps=2.1 q=62.0 size=       1KiB time=00:00:03.64 bitrate=   1.2kbits/s speed=0.0175x elapsed=0:03:27.88    \nframe=  440 fps=2.1 q=62.0 size=       1KiB time=00:00:03.65 bitrate=   1.2kbits/s speed=0.0176x elapsed=0:03:28.40    \nframe=  442 fps=2.1 q=61.0 size=       1KiB time=00:00:03.67 bitrate=   1.2kbits/s speed=0.0176x elapsed=0:03:28.92    \nframe=  444 fps=2.1 q=61.0 size=       1KiB time=00:00:03.69 bitrate=   1.2kbits/s speed=0.0176x elapsed=0:03:29.44    \nframe=  446 fps=2.1 q=61.0 size=       1KiB time=00:00:03.70 bitrate=   1.2kbits/s speed=0.0177x elapsed=0:03:29.99    \nframe=  446 fps=2.1 q=61.0 size=       1KiB time=00:00:03.70 bitrate=   1.2kbits/s speed=0.0176x elapsed=0:03:30.55    \nframe=  448 fps=2.1 q=61.0 size=       1KiB time=00:00:03.72 bitrate=   1.2kbits/s speed=0.0176x elapsed=0:03:31.08    \nframe=  449 fps=2.1 q=49.0 size=       1KiB time=00:00:03.73 bitrate=   1.2kbits/s speed=0.0176x elapsed=0:03:31.63    \nframe=  450 fps=2.1 q=61.0 size=       1KiB time=00:00:03.74 bitrate=   1.2kbits/s speed=0.0176x elapsed=0:03:32.16    \nframe=  450 fps=2.1 q=61.0 size=       1KiB time=00:00:03.74 bitrate=   1.2kbits/s speed=0.0176x elapsed=0:03:32.69    \nframe=  452 fps=2.1 q=61.0 size=       1KiB time=00:00:03.75 bitrate=   1.2kbits/s speed=0.0176x elapsed=0:03:33.23    \nframe=  454 fps=2.1 q=61.0 size=       1KiB time=00:00:03.77 bitrate=   1.2kbits/s speed=0.0177x elapsed=0:03:33.74    \nframe=  455 fps=2.1 q=57.0 size=       1KiB time=00:00:03.78 bitrate=   1.2kbits/s speed=0.0177x elapsed=0:03:34.34    \nframe=  457 fps=2.1 q=55.0 size=       1KiB time=00:00:03.80 bitrate=   1.2kbits/s speed=0.0177x elapsed=0:03:34.89    \nframe=  458 fps=2.1 q=62.0 size=       1KiB time=00:00:03.80 bitrate=   1.2kbits/s speed=0.0177x elapsed=0:03:35.39    \nframe=  461 fps=2.1 q=56.0 size=       1KiB time=00:00:03.83 bitrate=   1.2kbits/s speed=0.0178x elapsed=0:03:35.92    \nframe=  463 fps=2.1 q=59.0 size=       1KiB time=00:00:03.85 bitrate=   1.2kbits/s speed=0.0178x elapsed=0:03:36.42    \nframe=  465 fps=2.1 q=47.0 size=       1KiB time=00:00:03.86 bitrate=   1.2kbits/s speed=0.0178x elapsed=0:03:36.93    \nframe=  466 fps=2.1 q=62.0 size=       1KiB time=00:00:03.87 bitrate=   1.2kbits/s speed=0.0178x elapsed=0:03:37.45    \nframe=  467 fps=2.1 q=61.0 size=       1KiB time=00:00:03.88 bitrate=   1.2kbits/s speed=0.0178x elapsed=0:03:37.97    \nframe=  469 fps=2.1 q=59.0 size=       1KiB time=00:00:03.90 bitrate=   1.1kbits/s speed=0.0178x elapsed=0:03:38.49    \nframe=  470 fps=2.1 q=61.0 size=       1KiB time=00:00:03.90 bitrate=   1.1kbits/s speed=0.0178x elapsed=0:03:39.00    \nframe=  471 fps=2.1 q=57.0 size=       1KiB time=00:00:03.91 bitrate=   1.1kbits/s speed=0.0178x elapsed=0:03:39.51    \nframe=  473 fps=2.1 q=55.0 size=       1KiB time=00:00:03.93 bitrate=   1.1kbits/s speed=0.0179x elapsed=0:03:40.03    \nframe=  473 fps=2.1 q=55.0 size=       1KiB time=00:00:03.93 bitrate=   1.1kbits/s speed=0.0178x elapsed=0:03:40.56    \nframe=  474 fps=2.1 q=62.0 size=       1KiB time=00:00:03.94 bitrate=   1.1kbits/s speed=0.0178x elapsed=0:03:41.07    \nframe=  475 fps=2.1 q=59.0 size=       1KiB time=00:00:03.95 bitrate=   1.1kbits/s speed=0.0178x elapsed=0:03:41.58    \nframe=  476 fps=2.1 q=61.0 size=       1KiB time=00:00:03.95 bitrate=   1.1kbits/s speed=0.0178x elapsed=0:03:42.10    \nframe=  479 fps=2.2 q=59.0 size=       1KiB time=00:00:03.98 bitrate=   1.1kbits/s speed=0.0179x elapsed=0:03:42.61    \nframe=  480 fps=2.2 q=62.0 size=       1KiB time=00:00:03.99 bitrate=   1.1kbits/s speed=0.0179x elapsed=0:03:43.12    \nframe=  484 fps=2.2 q=62.0 size=       1KiB time=00:00:04.02 bitrate=   1.1kbits/s speed=0.018x elapsed=0:03:43.64    \nframe=  485 fps=2.2 q=59.0 size=       1KiB time=00:00:04.03 bitrate=   1.1kbits/s speed=0.018x elapsed=0:03:44.16    \nframe=  486 fps=2.2 q=62.0 size=       1KiB time=00:00:04.04 bitrate=   1.1kbits/s speed=0.018x elapsed=0:03:44.67    \nframe=  487 fps=2.2 q=61.0 size=       1KiB time=00:00:04.05 bitrate=   1.1kbits/s speed=0.018x elapsed=0:03:45.19    \nframe=  489 fps=2.2 q=55.0 size=       1KiB time=00:00:04.06 bitrate=   1.1kbits/s speed=0.018x elapsed=0:03:45.71    \nframe=  489 fps=2.2 q=55.0 size=       1KiB time=00:00:04.06 bitrate=   1.1kbits/s speed=0.018x elapsed=0:03:46.23    \nframe=  490 fps=2.2 q=61.0 size=       1KiB time=00:00:04.07 bitrate=   1.1kbits/s speed=0.018x elapsed=0:03:46.74    \nframe=  490 fps=2.2 q=61.0 size=       1KiB time=00:00:04.07 bitrate=   1.1kbits/s speed=0.0179x elapsed=0:03:47.26    \nframe=  492 fps=2.2 q=62.0 size=       1KiB time=00:00:04.09 bitrate=   1.1kbits/s speed=0.018x elapsed=0:03:47.77    \nframe=  493 fps=2.2 q=56.0 size=       1KiB time=00:00:04.10 bitrate=   1.1kbits/s speed=0.018x elapsed=0:03:48.29    \nframe=  495 fps=2.2 q=59.0 size=       1KiB time=00:00:04.11 bitrate=   1.1kbits/s speed=0.018x elapsed=0:03:48.81    \nframe=  498 fps=2.2 q=62.0 size=       1KiB time=00:00:04.14 bitrate=   1.1kbits/s speed=0.0181x elapsed=0:03:49.31    \nframe=  500 fps=2.2 q=62.0 size=       1KiB time=00:00:04.15 bitrate=   1.1kbits/s speed=0.0181x elapsed=0:03:49.83    \nframe=  501 fps=2.2 q=59.0 size=       1KiB time=00:00:04.16 bitrate=   1.1kbits/s speed=0.0181x elapsed=0:03:50.34    \nframe=  505 fps=2.2 q=56.0 size=       1KiB time=00:00:04.20 bitrate=   1.1kbits/s speed=0.0182x elapsed=0:03:50.86    \nframe=  507 fps=2.2 q=59.0 size=       1KiB time=00:00:04.21 bitrate=   1.1kbits/s speed=0.0182x elapsed=0:03:51.39    \nframe=  509 fps=2.2 q=56.0 size=       1KiB time=00:00:04.23 bitrate=   1.1kbits/s speed=0.0183x elapsed=0:03:51.90    \nframe=  509 fps=2.2 q=56.0 size=       1KiB time=00:00:04.23 bitrate=   1.1kbits/s speed=0.0182x elapsed=0:03:52.43    \nframe=  511 fps=2.2 q=59.0 size=       1KiB time=00:00:04.25 bitrate=   1.1kbits/s speed=0.0182x elapsed=0:03:52.94    \nframe=  513 fps=2.2 q=49.0 size=       1KiB time=00:00:04.26 bitrate=   1.0kbits/s speed=0.0183x elapsed=0:03:53.46    \nframe=  517 fps=2.2 q=59.0 size=       1KiB time=00:00:04.30 bitrate=   1.0kbits/s speed=0.0184x elapsed=0:03:53.98    \nframe=  517 fps=2.2 q=59.0 size=       1KiB time=00:00:04.30 bitrate=   1.0kbits/s speed=0.0183x elapsed=0:03:54.50    \nframe=  521 fps=2.2 q=55.0 size=       1KiB time=00:00:04.33 bitrate=   1.0kbits/s speed=0.0184x elapsed=0:03:55.01    \nframe=  521 fps=2.2 q=55.0 size=       1KiB time=00:00:04.33 bitrate=   1.0kbits/s speed=0.0184x elapsed=0:03:55.52    \nframe=  521 fps=2.2 q=55.0 size=       1KiB time=00:00:04.33 bitrate=   1.0kbits/s speed=0.0184x elapsed=0:03:56.03    \nframe=  525 fps=2.2 q=56.0 size=       1KiB time=00:00:04.36 bitrate=   1.0kbits/s speed=0.0185x elapsed=0:03:56.54    \nframe=  525 fps=2.2 q=56.0 size=       1KiB time=00:00:04.36 bitrate=   1.0kbits/s speed=0.0184x elapsed=0:03:57.07    \nframe=  527 fps=2.2 q=58.0 size=       1KiB time=00:00:04.38 bitrate=   1.0kbits/s speed=0.0184x elapsed=0:03:57.59    \nframe=  529 fps=2.2 q=48.0 size=       1KiB time=00:00:04.40 bitrate=   1.0kbits/s speed=0.0185x elapsed=0:03:58.10    \nframe=  531 fps=2.2 q=60.0 size=       1KiB time=00:00:04.41 bitrate=   1.0kbits/s speed=0.0185x elapsed=0:03:58.61    \nframe=  533 fps=2.2 q=58.0 size=       1KiB time=00:00:04.43 bitrate=   1.0kbits/s speed=0.0185x elapsed=0:03:59.13    \nframe=  533 fps=2.2 q=58.0 size=       1KiB time=00:00:04.43 bitrate=   1.0kbits/s speed=0.0185x elapsed=0:03:59.65    \nframe=  537 fps=2.2 q=55.0 size=       1KiB time=00:00:04.46 bitrate=   1.0kbits/s speed=0.0186x elapsed=0:04:00.16    \nframe=  537 fps=2.2 q=55.0 size=       1KiB time=00:00:04.46 bitrate=   1.0kbits/s speed=0.0186x elapsed=0:04:00.68    \nframe=  537 fps=2.2 q=55.0 size=       1KiB time=00:00:04.46 bitrate=   1.0kbits/s speed=0.0185x elapsed=0:04:01.20    \nframe=  537 fps=2.2 q=55.0 size=       1KiB time=00:00:04.46 bitrate=   1.0kbits/s speed=0.0185x elapsed=0:04:01.71    \nframe=  541 fps=2.2 q=55.0 size=       1KiB time=00:00:04.50 bitrate=   1.0kbits/s speed=0.0186x elapsed=0:04:02.22    \nframe=  541 fps=2.2 q=55.0 size=       1KiB time=00:00:04.50 bitrate=   1.0kbits/s speed=0.0185x elapsed=0:04:02.74    \nframe=  543 fps=2.2 q=58.0 size=       1KiB time=00:00:04.51 bitrate=   1.0kbits/s speed=0.0186x elapsed=0:04:03.25    \nframe=  545 fps=2.2 q=48.0 size=       1KiB time=00:00:04.53 bitrate=   1.0kbits/s speed=0.0186x elapsed=0:04:03.76    \nframe=  547 fps=2.2 q=60.0 size=       1KiB time=00:00:04.55 bitrate=   1.0kbits/s speed=0.0186x elapsed=0:04:04.28    \nframe=  549 fps=2.2 q=58.0 size=       1KiB time=00:00:04.56 bitrate=   1.0kbits/s speed=0.0187x elapsed=0:04:04.80    \nframe=  553 fps=2.3 q=55.0 size=       1KiB time=00:00:04.60 bitrate=   1.0kbits/s speed=0.0188x elapsed=0:04:05.31    \nframe=  553 fps=2.2 q=55.0 size=       1KiB time=00:00:04.60 bitrate=   1.0kbits/s speed=0.0187x elapsed=0:04:05.83    \nframe=  553 fps=2.2 q=55.0 size=       1KiB time=00:00:04.60 bitrate=   1.0kbits/s speed=0.0187x elapsed=0:04:06.35    \nframe=  553 fps=2.2 q=55.0 size=       1KiB time=00:00:04.60 bitrate=   1.0kbits/s speed=0.0186x elapsed=0:04:06.86    \nframe=  557 fps=2.3 q=55.0 size=       1KiB time=00:00:04.63 bitrate=   1.0kbits/s speed=0.0187x elapsed=0:04:07.38    \nframe=  559 fps=2.3 q=58.0 size=       1KiB time=00:00:04.65 bitrate=   1.0kbits/s speed=0.0188x elapsed=0:04:07.89    \nframe=  561 fps=2.3 q=48.0 size=       1KiB time=00:00:04.66 bitrate=   1.0kbits/s speed=0.0188x elapsed=0:04:08.42    \nframe=  561 fps=2.3 q=48.0 size=       1KiB time=00:00:04.66 bitrate=   1.0kbits/s speed=0.0187x elapsed=0:04:08.92    \nframe=  561 fps=2.2 q=48.0 size=       1KiB time=00:00:04.66 bitrate=   1.0kbits/s speed=0.0187x elapsed=0:04:09.43    \nframe=  565 fps=2.3 q=58.0 size=       1KiB time=00:00:04.70 bitrate=   1.0kbits/s speed=0.0188x elapsed=0:04:09.95    \nframe=  565 fps=2.3 q=58.0 size=       1KiB time=00:00:04.70 bitrate=   1.0kbits/s speed=0.0188x elapsed=0:04:10.47    \nframe=  565 fps=2.3 q=58.0 size=       1KiB time=00:00:04.70 bitrate=   1.0kbits/s speed=0.0187x elapsed=0:04:10.99    \nframe=  569 fps=2.3 q=55.0 size=       1KiB time=00:00:04.73 bitrate=   0.9kbits/s speed=0.0188x elapsed=0:04:11.50    \nframe=  569 fps=2.3 q=55.0 size=       1KiB time=00:00:04.73 bitrate=   0.9kbits/s speed=0.0188x elapsed=0:04:12.02    \nframe=  569 fps=2.3 q=55.0 size=       1KiB time=00:00:04.73 bitrate=   0.9kbits/s speed=0.0187x elapsed=0:04:12.54    \nframe=  571 fps=2.3 q=59.0 size=       1KiB time=00:00:04.75 bitrate=   0.9kbits/s speed=0.0188x elapsed=0:04:13.06    \nframe=  573 fps=2.3 q=58.0 size=       1KiB time=00:00:04.76 bitrate=   0.9kbits/s speed=0.0188x elapsed=0:04:13.57    \nframe=  573 fps=2.3 q=58.0 size=       1KiB time=00:00:04.76 bitrate=   0.9kbits/s speed=0.0188x elapsed=0:04:14.09    \nframe=  575 fps=2.3 q=60.0 size=       1KiB time=00:00:04.78 bitrate=   0.9kbits/s speed=0.0188x elapsed=0:04:14.59    \nframe=  581 fps=2.3 q=60.0 size=       1KiB time=00:00:04.83 bitrate=   0.9kbits/s speed=0.0189x elapsed=0:04:15.12    \nframe=  581 fps=2.3 q=60.0 size=       1KiB time=00:00:04.83 bitrate=   0.9kbits/s speed=0.0189x elapsed=0:04:15.62    \nframe=  585 fps=2.3 q=58.0 size=       1KiB time=00:00:04.86 bitrate=   0.9kbits/s speed=0.019x elapsed=0:04:16.15    \nframe=  585 fps=2.3 q=58.0 size=       1KiB time=00:00:04.86 bitrate=   0.9kbits/s speed=0.019x elapsed=0:04:16.66    \nframe=  587 fps=2.3 q=60.0 size=       1KiB time=00:00:04.88 bitrate=   0.9kbits/s speed=0.019x elapsed=0:04:17.18    \nframe=  589 fps=2.3 q=60.0 size=       1KiB time=00:00:04.90 bitrate=   0.9kbits/s speed=0.019x elapsed=0:04:17.70    \n[out#0/matroska @ 0000014fbb629200] video:1567KiB audio:0KiB subtitle:0KiB other streams:0KiB global headers:0KiB muxing overhead: 0.208258%\nframe=  600 fps=2.3 q=60.0 Lsize=    1570KiB time=00:00:04.99 bitrate=2576.5kbits/s speed=0.0193x elapsed=0:04:18.01    \n",
  "seconds": 260.3820412158966,
  "probe_out": {}
}